<svg width="24" height="31" viewBox="0 0 24 31" fill="none" xmlns="http://www.w3.org/2000/svg">
<path d="M23.3046 25.28H13.1846L16.2646 22.332C18.1566 20.528 19.6966 19.032 20.9726 17.272C22.3806 15.292 23.1726 13.4 23.1726 10.804C23.1726 7.768 22.0286 5.348 20.4446 3.764C19.3886 2.752 17.1006 0.991998 12.8326 0.991998C8.65259 0.991998 6.14459 2.532 4.73659 4.028C2.93259 5.92 1.92059 8.824 1.70059 11.376H8.47659C8.47659 10.232 8.91659 8.648 9.70859 7.768C10.2806 7.152 11.1166 6.712 12.3926 6.712C13.5366 6.712 14.5046 7.02 15.0766 7.548C15.7806 8.208 16.2206 9.352 16.2206 10.452C16.2206 12.476 15.1206 14.368 14.4606 15.424C13.5366 16.832 11.2046 19.692 9.66459 21.408L0.864594 31H23.3046V25.28Z" fill="#45B2EA"/>
</svg>
