<svg width="23" height="31" viewBox="0 0 23 31" fill="none" xmlns="http://www.w3.org/2000/svg">
<path d="M20.5006 0.651998H6.06859L3.07659 16.536C4.52859 15.744 6.59659 14.996 9.06059 14.996C12.1406 14.996 13.5926 16.228 13.9446 16.536C14.6486 17.152 15.4406 18.208 15.4406 19.968C15.4406 21.684 14.6486 22.96 13.7246 23.664C12.6686 24.5 11.0846 24.852 9.54459 24.852C7.78459 24.852 6.33259 24.368 5.10059 23.576C4.17659 23.004 3.07659 22.036 2.28459 21.156L0.744594 27.448C4.44059 30.308 7.74059 30.66 10.5126 30.66C13.5046 30.66 16.7166 30.22 19.4006 27.58C20.7646 26.216 22.3926 23.796 22.3926 20.012C22.3926 16.536 21.0286 14.248 19.7086 12.928C18.0806 11.256 15.5286 10.068 12.2286 10.068C11.4806 10.068 10.5566 10.156 9.80859 10.288L10.6006 6.372H20.5006V0.651998Z" fill="#45B2EA"/>
</svg>
