<svg width="24" height="31" viewBox="0 0 24 31" fill="none" xmlns="http://www.w3.org/2000/svg">
<path d="M8.30059 9.452C8.34459 8.528 8.74059 7.384 9.35659 6.724C9.92859 6.152 10.8526 5.756 11.9966 5.756C13.0966 5.756 13.9766 6.152 14.5046 6.636C15.0766 7.164 15.4726 8 15.4726 9.012C15.4726 10.2 14.9886 11.124 14.3726 11.652C13.4046 12.444 11.8206 12.488 11.4246 12.488H11.0286V17.152H11.5566C12.5686 17.152 14.1086 17.24 15.1646 18.076C15.8686 18.648 16.4406 19.66 16.4406 20.892C16.4406 22.08 15.9566 23.224 15.2526 23.884C14.5486 24.544 13.4486 24.896 12.3046 24.896C10.8966 24.896 9.75259 24.412 9.04859 23.708C8.25659 22.916 7.72859 21.552 7.64059 20.408H0.864594C1.17259 23.356 2.44859 25.952 4.12059 27.668C6.71659 30.264 9.84059 30.704 12.7006 30.704C15.0766 30.704 17.9366 30.44 20.4446 28.152C22.5126 26.26 23.3926 23.708 23.3926 21.464C23.3926 19.88 22.9086 18.032 22.0286 16.844C21.2366 15.744 19.9166 14.908 18.6846 14.468C19.5206 14.072 20.2686 13.5 20.8846 12.62C21.8086 11.344 22.0726 10.068 22.0726 8.616C22.0726 5.756 21.0606 3.82 19.8286 2.632C18.3326 1.136 15.7366 0.0359976 12.1286 0.0359976C9.70859 0.0359976 6.84859 0.563999 4.69259 2.808C3.15259 4.392 2.05259 6.988 1.78859 9.452H8.30059Z" fill="#45B2EA"/>
</svg>
