<svg width="24" height="32" viewBox="0 0 24 32" fill="none" xmlns="http://www.w3.org/2000/svg">
<path d="M11.4806 0.991998L4.74859 9.836C2.24059 13.136 0.0405938 16.436 0.0405938 21.1C0.0405938 23.696 0.656594 26.16 2.59259 28.228C5.49659 31.396 9.41259 31.66 12.0966 31.66C14.6926 31.66 18.4326 31.264 21.1166 28.36C23.0086 26.292 23.8886 23.3 23.8886 20.484C23.8886 16.92 22.3926 14.808 21.3366 13.708C20.0606 12.388 17.7726 10.892 14.0766 10.892C12.8006 10.892 11.8766 11.068 10.9966 11.376L18.7406 1.74L11.4806 0.991998ZM11.8766 26.116C10.3806 26.116 9.14859 25.544 8.31259 24.752C7.21259 23.74 6.81659 22.464 6.81659 21.1C6.81659 19.076 7.74059 17.888 8.31259 17.36C9.32459 16.392 10.5566 16.084 11.8766 16.084C13.0206 16.084 14.2966 16.348 15.3966 17.316C16.2326 18.064 16.9366 19.208 16.9366 20.924C16.9366 22.816 16.1886 24.048 15.3966 24.796C14.7806 25.368 13.6366 26.116 11.8766 26.116Z" fill="#45B2EA"/>
</svg>
