<svg width="104" height="104" viewBox="0 0 104 104" fill="none" xmlns="http://www.w3.org/2000/svg">
<g filter="url(#filter0_d_7305_346)">
<rect x="16" y="8" width="72" height="72" rx="20" fill="url(#paint0_linear_7305_346)"/>
<path d="M60.5006 30.652H46.0686L43.0766 46.536C44.5286 45.744 46.5966 44.996 49.0606 44.996C52.1406 44.996 53.5926 46.228 53.9446 46.536C54.6486 47.152 55.4406 48.208 55.4406 49.968C55.4406 51.684 54.6486 52.96 53.7246 53.664C52.6686 54.5 51.0846 54.852 49.5446 54.852C47.7846 54.852 46.3326 54.368 45.1006 53.576C44.1766 53.004 43.0766 52.036 42.2846 51.156L40.7446 57.448C44.4406 60.308 47.7406 60.66 50.5126 60.66C53.5046 60.66 56.7166 60.22 59.4006 57.58C60.7646 56.216 62.3926 53.796 62.3926 50.012C62.3926 46.536 61.0286 44.248 59.7086 42.928C58.0806 41.256 55.5286 40.068 52.2286 40.068C51.4806 40.068 50.5566 40.156 49.8086 40.288L50.6006 36.372H60.5006V30.652Z" fill="#45B2EA"/>
</g>
<defs>
<filter id="filter0_d_7305_346" x="0" y="0" width="104" height="104" filterUnits="userSpaceOnUse" color-interpolation-filters="sRGB">
<feFlood flood-opacity="0" result="BackgroundImageFix"/>
<feColorMatrix in="SourceAlpha" type="matrix" values="0 0 0 0 0 0 0 0 0 0 0 0 0 0 0 0 0 0 127 0" result="hardAlpha"/>
<feOffset dy="8"/>
<feGaussianBlur stdDeviation="8"/>
<feColorMatrix type="matrix" values="0 0 0 0 0.879167 0 0 0 0 0.960659 0 0 0 0 1 0 0 0 1 0"/>
<feBlend mode="multiply" in2="BackgroundImageFix" result="effect1_dropShadow_7305_346"/>
<feBlend mode="normal" in="SourceGraphic" in2="effect1_dropShadow_7305_346" result="shape"/>
</filter>
<linearGradient id="paint0_linear_7305_346" x1="52" y1="8" x2="52" y2="80" gradientUnits="userSpaceOnUse">
<stop stop-color="white"/>
<stop offset="1" stop-color="#EFFBFF" stop-opacity="0.5"/>
</linearGradient>
</defs>
</svg>
